<?xml version="1.0" encoding="UTF-8" standalone="no"?>
<svg
   xmlns:dc="http://purl.org/dc/elements/1.1/"
   xmlns:cc="http://creativecommons.org/ns#"
   xmlns:rdf="http://www.w3.org/1999/02/22-rdf-syntax-ns#"
   xmlns:svg="http://www.w3.org/2000/svg"
   xmlns="http://www.w3.org/2000/svg"
   xmlns:sodipodi="http://sodipodi.sourceforge.net/DTD/sodipodi-0.dtd"
   xmlns:inkscape="http://www.inkscape.org/namespaces/inkscape"
   width="210mm"
   height="297mm"
   viewBox="0 0 210 297"
   version="1.1"
   id="svg8"
   sodipodi:docname="desenho3.svg"
   inkscape:version="1.0.2-2 (e86c870879, 2021-01-15)">
  <defs
     id="defs2" />
  <sodipodi:namedview
     id="base"
     pagecolor="#ffffff"
     bordercolor="#666666"
     borderopacity="1.0"
     inkscape:pageopacity="0.0"
     inkscape:pageshadow="2"
     inkscape:zoom="2.8"
     inkscape:cx="361.53077"
     inkscape:cy="416.01044"
     inkscape:document-units="mm"
     inkscape:current-layer="layer1"
     inkscape:document-rotation="0"
     showgrid="false"
     inkscape:window-width="1758"
     inkscape:window-height="1030"
     inkscape:window-x="128"
     inkscape:window-y="0"
     inkscape:window-maximized="0" />
  <metadata
     id="metadata5">
    <rdf:RDF>
      <cc:Work
         rdf:about="">
        <dc:format>image/svg+xml</dc:format>
        <dc:type
           rdf:resource="http://purl.org/dc/dcmitype/StillImage" />
      </cc:Work>
    </rdf:RDF>
  </metadata>
  <g
     inkscape:label="Layer 1"
     inkscape:groupmode="layer"
     id="layer1">
    <path
       style="fill:#fdf202;fill-opacity:1;stroke:#000000;stroke-width:0.290149;stroke-linecap:square;stroke-linejoin:round;paint-order:fill markers stroke"
       d="m 86.940764,234.94315 c -3.026819,-0.634 -4.475336,-1.43148 -6.050207,-2.2227 -1.899712,-0.9544 -4.255249,-1.82673 -8.179075,-5.17429 -2.125656,-1.81348 -4.333082,-2.41508 -7.599574,-6.82795 -2.954779,-3.99177 -5.145832,-8.72344 -6.834178,-11.81757 -1.360199,-2.49282 -2.117156,-3.35475 -2.506481,-9.91802 -0.182619,-3.07695 0.113035,-8.60619 -0.126889,-15.25866 -0.198992,-5.52218 -0.185138,-13.87453 -0.167191,-23.06818 0.09351,-48.42917 -0.300377,-66.195253 0.380289,-69.417979 1.690172,-8.012702 6.115037,-14.07459 11.436152,-19.872531 5.687078,-6.196712 12.768548,-10.31657 21.103385,-12.277491 2.794106,-0.657367 4.713812,-0.9477 11.426801,-0.983909 6.114434,-0.03306 6.787674,0.694677 10.292424,1.715897 12.05378,2.609251 19.1196,10.867954 25.13224,21.069506 2.62616,4.455752 3.98548,7.430682 5.11533,13.031174 0.37219,1.844989 0.50642,7.161763 0.35018,19.953353 -0.0608,4.98463 0.87003,6.83938 0.74849,15.79587 -0.267,19.6607 1.64783,41.93395 1.57446,51.81957 -0.12122,16.30594 -0.18765,18.17593 -0.71253,20.6662 -3.49901,16.59599 -15.41549,29.19984 -31.5686,32.95329 -3.59794,0.83609 -13.643795,1.45772 -17.653799,0.81773 z"
       id="path34"
       sodipodi:nodetypes="cssssssscssscssssccssc" />
    <path
       style="fill:#fdf202;fill-opacity:1;stroke:#000000;stroke-width:0.833068px;stroke-linecap:butt;stroke-linejoin:miter;stroke-opacity:1"
       d="m 55.406325,176.23336 -3.339129,1.43208 -0.951856,2.68312 1.577075,2.66889 2.539792,1.91964 0.121852,8.40451 -9.403726,-5.60008 -3.292436,-3.47741 -1.500154,-2.22305 0.275818,-3.86942 5.09325,-6.94626 6.733801,-6.21164 1.92635,-1.34975 z"
       id="path36" />
    <path
       style="fill:#fdf202;fill-opacity:1;stroke:#000000;stroke-width:0.854986px;stroke-linecap:butt;stroke-linejoin:miter;stroke-opacity:1"
       d="m 143.11961,178.07671 3.52064,1.43067 1.00359,2.68044 -1.66278,2.66621 -2.67786,1.91775 -0.12846,8.39614 9.08697,-3.17042 3.47141,-3.47396 2.15462,-3.22339 -0.1971,-5.86472 -3.94502,-6.05326 -6.57565,-6.52398 -4.67146,-3.22697 z"
       id="path38"
       sodipodi:nodetypes="cccccccccccccc" />
    <path
       style="fill:#241c1c;stroke:#000000;stroke-width:0.833068px;stroke-linecap:butt;stroke-linejoin:miter;stroke-opacity:1"
       d="m 71.726031,227.51659 1.813346,13.12607 -4.574895,2.71193 -2.408118,2.01221 0.856925,2.73019 3.479557,1.45312 5.88881,-0.34877 5.1424,-2.13281 5.560221,-2.66114 1.001824,-8.89441 -8.536033,-2.73951 z"
       id="path40"
       sodipodi:nodetypes="cccccccccccc" />
    <path
       style="fill:#119ee8;fill-opacity:1;stroke:#000000;stroke-width:0.202762;stroke-linecap:square;stroke-linejoin:round;paint-order:fill markers stroke"
       d="m 80.575539,240.18813 c -3.558997,-0.46089 -6.503449,-0.87865 -6.543185,-0.92837 -0.03967,-0.0497 -0.394803,-2.50276 -0.788946,-5.45118 -0.394143,-2.94845 -0.763286,-5.52751 -0.820275,-5.73128 -0.06581,-0.23552 1.214166,0.47336 3.517656,1.94839 2.925969,1.87361 4.377414,2.63928 7.55883,3.98749 2.165613,0.91775 4.001723,1.72584 4.080186,1.79574 0.138539,0.12343 -0.29282,5.02401 -0.453431,5.15301 -0.04408,0.0353 -2.991838,-0.31297 -6.550835,-0.7738 z"
       id="path50" />
    <path
       style="fill:#241c1c;stroke:#000000;stroke-width:0.833068px;stroke-linecap:butt;stroke-linejoin:miter;stroke-opacity:1"
       d="m 129.59312,225.6734 -1.49332,13.91322 4.5749,2.71193 2.40812,2.01221 -0.85693,2.73019 -3.47956,1.45311 -5.88881,-0.34877 -5.1424,-2.1328 -5.56022,-2.66114 -0.99914,-8.42105 8.53335,-3.21287 z"
       id="path52"
       sodipodi:nodetypes="cccccccccccc" />
    <path
       style="fill:#119ee8;fill-opacity:1;stroke:#000000;stroke-width:0.202762;stroke-linecap:square;stroke-linejoin:round;paint-order:fill markers stroke"
       d="m 121.06364,239.13209 c 3.559,-0.4609 6.50345,-0.87865 6.54318,-0.92837 0.0397,-0.0498 0.39481,-2.50276 0.78895,-5.45118 0.39414,-2.94845 0.76329,-5.52751 0.82028,-5.73129 0.0658,-0.23551 -1.21417,0.47336 -3.51766,1.94839 -2.92597,1.87361 -4.37741,2.63929 -7.55883,3.98749 -2.16561,0.91776 -4.36869,1.93829 -4.44716,2.00819 -0.13854,0.12342 0.65979,4.81157 0.8204,4.94057 0.0441,0.0353 2.99184,-0.31297 6.55084,-0.7738 z"
       id="path54"
       sodipodi:nodetypes="sssssssss"
       inkscape:label="path54" />
    <path
       style="fill:none;stroke:#000000;stroke-width:0.833068px;stroke-linecap:butt;stroke-linejoin:miter;stroke-opacity:1"
       d="m 55.215803,102.14417 17.357392,0.11272 1.95771,-7.269317 3.650811,-5.490574 6.071932,-5.188653 7.240884,-3.091366 7.781028,-0.569804 7.26812,1.747352 7.07256,4.378233 5.51904,8.699886 1.60865,5.460973 0.11052,0.9461 19.66919,-0.32119 0.0378,6.73213 -19.77618,0.006 -2.37373,8.11317 -4.0686,6.01891 -5.97149,4.34653 -5.87638,2.55774 -8.519122,0.2585 -8.007413,-2.26911 -6.865727,-5.01057 -4.669228,-7.23197 -0.871125,-5.25474 -18.20188,-0.63382 z"
       id="path60" />
    <circle
       style="font-variation-settings:normal;opacity:1;vector-effect:none;fill:#ff0000;fill-opacity:1;fill-rule:evenodd;stroke-width:0.833068;stroke-linecap:butt;stroke-linejoin:miter;stroke-miterlimit:4;stroke-dasharray:none;stroke-dashoffset:0;stroke-opacity:1;stop-color:#000000;stop-opacity:1"
       id="path62"
       sodipodi:type="arc"
       sodipodi:cx="96.197922"
       sodipodi:cy="103.8594"
       sodipodi:rx="11.380423"
       sodipodi:ry="12.821979"
       sodipodi:start="0"
       sodipodi:end="6.7179468e-05"
       sodipodi:arc-type="slice"
       d="m 107.57834,103.8594 a 11.380423,12.821979 0 0 1 0,8.6e-4 l -11.380418,-8.6e-4 z" />
    <circle
       style="font-variation-settings:normal;opacity:1;vector-effect:none;fill:#ffffff;fill-opacity:1;fill-rule:evenodd;stroke-width:0.816103;stroke-linecap:butt;stroke-linejoin:miter;stroke-miterlimit:4;stroke-dasharray:none;stroke-dashoffset:0;stroke-opacity:1;stop-color:#000000;stop-opacity:1"
       id="path64"
       sodipodi:type="arc"
       sodipodi:cx="97.259071"
       sodipodi:cy="104.86179"
       sodipodi:rx="16.243109"
       sodipodi:ry="16.953249"
       sodipodi:start="0"
       sodipodi:end="6.2751954"
       sodipodi:arc-type="arc"
       d="M 113.50218,104.86179 A 16.243109,16.953249 0 0 1 97.291517,121.81501 16.243109,16.953249 0 0 1 81.016092,104.92952 16.243109,16.953249 0 0 1 97.161736,87.908849 16.243109,16.953249 0 0 1 113.50166,104.72634"
       sodipodi:open="true"
       inkscape:label="path64" />
    <circle
       style="font-variation-settings:normal;opacity:1;vector-effect:none;fill:#28170b;fill-opacity:1;fill-rule:evenodd;stroke-width:0.967904;stroke-linecap:butt;stroke-linejoin:miter;stroke-miterlimit:4;stroke-dasharray:none;stroke-dashoffset:0;stroke-opacity:1;stop-color:#000000;stop-opacity:1"
       id="path66"
       sodipodi:type="arc"
       sodipodi:cx="97.619835"
       sodipodi:cy="104.52525"
       sodipodi:rx="6.8989129"
       sodipodi:ry="7.1906552"
       sodipodi:start="0"
       sodipodi:end="6.2751917"
       sodipodi:open="true"
       sodipodi:arc-type="arc"
       d="m 104.51875,104.52525 a 6.8989129,7.1906552 0 0 1 -6.885128,7.19064 6.8989129,7.1906552 0 0 1 -6.912645,-7.1619 6.8989129,7.1906552 0 0 1 6.857498,-7.219263 6.8989129,7.1906552 0 0 1 6.940055,7.133043"
       sodipodi:insensitive="true" />
    <path
       style="fill:none;stroke:#000000;stroke-width:0.833068px;stroke-linecap:butt;stroke-linejoin:miter;stroke-opacity:1"
       d="m 82.681013,143.27937 8.457538,-3.91551 7.878414,-1.08574 8.789405,2.18196 5.52004,2.79546"
       id="path76"
       inkscape:label="path76" />
    <path
       style="fill:#04a1ee;fill-opacity:1;stroke:#000000;stroke-width:0.833068px;stroke-linecap:butt;stroke-linejoin:miter;stroke-opacity:1"
       d="m 55.762055,156.94417 15.734222,10.7462 54.178373,0.74676 15.93422,-9.76749 0.35589,7.15112 -11.94834,7.74633 -0.0126,16.5153 0.0157,2.52455 12.93294,-1.01958 -0.26826,8.41692 -2.15447,9.68984 -3.32811,6.75105 -4.90537,6.86516 -6.79999,6.66542 -4.40014,3.18056 -6.1902,2.87509 -7.77211,2.14764 -9.782036,0.16026 -7.263365,-0.90582 -4.738844,-0.92006 -4.954554,-1.86555 -4.960506,-2.91743 -5.177381,-4.07336 -4.442811,-4.39306 -5.312803,-9.43742 -2.344957,-5.45679 -1.941999,-8.61484 -0.469362,-8.62315 11.150667,0.0425 -0.205919,-17.88157 -8.769218,-6.78811 -2.530473,-1.03769 z"
       id="path78" />
    <path
       style="fill:#04a1ee;fill-opacity:1;stroke:#000000;stroke-width:0.833068px;stroke-linecap:butt;stroke-linejoin:miter;stroke-opacity:1"
       d="m 90.19951,182.62755 18.19832,0.003 -0.59203,6.94602 -3.23183,5.17266 -3.9889,1.49515 -3.891399,0.1272 -5.180342,-4.59927 -1.39118,-4.19986 0.187342,-4.10358"
       id="path80" />
    <path
       style="fill:#04a1ee;fill-opacity:1;stroke:#000000;stroke-width:0.833068px;stroke-linecap:butt;stroke-linejoin:miter;stroke-opacity:1"
       d="m 66.895909,191.17432 0.120592,10.50319 -1.760418,4.39848 -2.813848,2.24732 -4.285758,0.0466"
       id="path82" />
    <path
       style="fill:#04a1ee;fill-opacity:1;stroke:#000000;stroke-width:0.833068px;stroke-linecap:butt;stroke-linejoin:miter;stroke-opacity:1"
       d="m 130.01957,192.60694 0.43479,7.22558 1.89052,5.49363 2.17714,3.55811 6.00776,0.80986"
       id="path84"
       inkscape:label="path84" />
    <path
       style="fill:none;stroke:#000000;stroke-width:0.833068px;stroke-linecap:butt;stroke-linejoin:miter;stroke-opacity:1"
       d="m 71.496277,167.69037 3.322253,2.22745 -4.128391,5.68003 -4.000149,-2.3051"
       id="path86" />
    <path
       style="fill:none;stroke:#000000;stroke-width:0.833068px;stroke-linecap:butt;stroke-linejoin:miter;stroke-opacity:1"
       d="m 125.67465,168.43713 -3.54294,2.36236 3.00913,5.18718 4.87558,-2.41958"
       id="path88" />
    <circle
       style="font-variation-settings:normal;opacity:1;vector-effect:none;fill:#280b0b;fill-opacity:1;fill-rule:evenodd;stroke-width:0.833068;stroke-linecap:butt;stroke-linejoin:miter;stroke-miterlimit:4;stroke-dasharray:none;stroke-dashoffset:0;stroke-opacity:1;stop-color:#000000;stop-opacity:1"
       id="path90"
       sodipodi:type="arc"
       sodipodi:cx="69.61927"
       sodipodi:cy="171.06749"
       sodipodi:rx="2.0966921"
       sodipodi:ry="2.1434295"
       sodipodi:start="0"
       sodipodi:end="6.2751917"
       sodipodi:open="true"
       sodipodi:arc-type="arc"
       d="m 71.715962,171.06749 a 2.0966921,2.1434295 0 0 1 -2.092502,2.14342 2.0966921,2.1434295 0 0 1 -2.100865,-2.13485 2.0966921,2.1434295 0 0 1 2.084105,-2.15196 2.0966921,2.1434295 0 0 1 2.109195,2.12626" />
    <circle
       style="font-variation-settings:normal;opacity:1;vector-effect:none;fill:#280b0b;fill-opacity:1;fill-rule:evenodd;stroke-width:0.833068;stroke-linecap:butt;stroke-linejoin:miter;stroke-miterlimit:4;stroke-dasharray:none;stroke-dashoffset:0;stroke-opacity:1;stop-color:#000000;stop-opacity:1"
       id="circle92"
       sodipodi:type="arc"
       sodipodi:cx="126.76026"
       sodipodi:cy="171.36401"
       sodipodi:rx="2.0966921"
       sodipodi:ry="2.1434295"
       sodipodi:start="0"
       sodipodi:end="6.2751917"
       sodipodi:open="true"
       sodipodi:arc-type="arc"
       d="m 128.85695,171.36401 a 2.0966921,2.1434295 0 0 1 -2.0925,2.14343 2.0966921,2.1434295 0 0 1 -2.10086,-2.13486 2.0966921,2.1434295 0 0 1 2.0841,-2.15196 2.0966921,2.1434295 0 0 1 2.1092,2.12626"
       inkscape:label="circle92" />
    <path
       style="fill:none;stroke:#000000;stroke-width:0.833068px;stroke-linecap:butt;stroke-linejoin:miter;stroke-opacity:1"
       d="M 94.0268,58.515991 87.971681,42.488792 Z"
       id="path94" />
    <path
       style="fill:none;stroke:#000000;stroke-width:0.833068px;stroke-linecap:butt;stroke-linejoin:miter;stroke-opacity:1"
       d="M 91.212354,37.558418 94.0268,58.515991 96.834193,32.761263"
       id="path96" />
    <path
       style="fill:none;stroke:#000000;stroke-width:0.833068px;stroke-linecap:butt;stroke-linejoin:miter;stroke-opacity:1"
       d="m 94.0268,58.515991 7.15921,-19.981252"
       id="path98" />
    <path
       style="fill:#280b0b;fill-opacity:1;stroke:#000000;stroke-width:0.203336;stroke-linecap:square;stroke-linejoin:round;paint-order:fill markers stroke"
       d="m 89.821015,128.07777 -3.628342,-1.0753 -3.354977,-2.45749 -3.354968,-2.45748 -2.118984,-3.32499 c -1.165434,-1.82875 -2.215371,-3.51478 -2.333192,-3.74674 -0.117813,-0.23196 -0.387712,-1.57806 -0.599768,-2.9913 l -0.385553,-2.56956 -1.807111,-0.11128 c -0.993912,-0.0611 -4.600343,-0.19294 -8.014295,-0.29277 -3.413943,-0.0998 -6.704422,-0.22898 -7.312162,-0.28704 l -1.104981,-0.10556 -0.01292,-2.97663 -0.01292,-2.97665 8.608425,0.0477 8.608425,0.0477 0.656412,-2.4588 c 0.361031,-1.35235 0.80818,-3.031068 0.993668,-3.730494 0.236345,-0.89113 0.879999,-2.098294 2.150972,-4.034065 1.708954,-2.602849 1.987505,-2.910898 4.822906,-5.333621 l 3.009199,-2.571231 3.569962,-1.525744 3.569962,-1.525737 3.765616,-0.272216 3.765626,-0.272209 3.506275,0.854871 3.50629,0.854879 3.46961,2.149082 3.46962,2.14909 2.68469,4.265498 c 2.7778,4.413428 3.06164,5.046509 4.05056,9.034557 l 0.48392,1.9515 9.73009,-0.0614 9.73011,-0.0615 0.0122,2.80332 0.0122,2.80332 -9.80934,0.0644 -9.80933,0.0644 -1.21213,4.1337 -1.21214,4.13371 -1.93909,2.92445 -1.93911,2.92444 -2.93601,2.16933 c -2.31077,1.70735 -3.53968,2.44336 -5.77066,3.45608 l -2.83464,1.28675 -4.522915,0.0882 -4.522922,0.0882 z m 12.430175,-6.86823 c 5.44857,-1.91075 9.51336,-6.52703 10.92232,-12.40423 0.5141,-2.14444 0.4389,-6.2319 -0.15503,-8.42586 -1.63991,-6.057937 -6.08646,-10.625662 -11.79639,-12.117894 -2.096511,-0.547903 -5.644014,-0.577267 -7.682882,-0.06359 -5.728116,1.443138 -10.531655,6.278337 -11.998294,12.077394 -1.180999,4.66965 -0.503405,9.72722 1.837138,13.71242 1.626553,2.76948 4.736648,5.56021 7.526095,6.75324 2.303979,0.98541 3.808609,1.23779 6.826667,1.14509 2.431246,-0.0746 3.081626,-0.17201 4.520376,-0.67655 z"
       id="path100" />
    <path
       style="fill:#ffffff;fill-opacity:1;stroke:#000000;stroke-width:0.344207;stroke-linecap:square;stroke-linejoin:round;paint-order:fill markers stroke"
       d="m 361.52241,459.91998 c -20.86431,-2.28709 -39.33817,-15.63691 -48.7092,-35.19887 -6.99638,-14.60489 -8.11928,-33.48166 -2.94113,-49.44255 1.31186,-4.04362 5.05505,-11.58705 7.59088,-15.29745 12.89037,-18.86103 32.59447,-28.80125 54.10383,-27.29401 12.90286,0.90415 24.01474,5.3844 34.21198,13.79411 12.06972,9.95396 20.64852,25.94344 22.20147,41.37993 0.63465,6.3085 0.36311,17.5708 -0.52625,21.8265 -2.21876,10.61697 -7.56012,21.40813 -14.68231,29.66266 -8.17438,9.474 -20.19173,16.70741 -32.27632,19.42757 -5.55144,1.2496 -13.58225,1.73302 -18.97295,1.14211 z m 15.41662,-38.81905 c 9.07905,-3.09185 15.75944,-10.796 17.67465,-20.38326 3.30204,-16.52945 -8.18179,-32.06033 -24.31233,-32.88029 -5.78297,-0.29397 -10.53046,0.9813 -15.3548,4.12461 -13.24295,8.62847 -16.22846,27.49979 -6.37661,40.30633 2.48253,3.22706 5.46988,5.61479 9.41399,7.52442 4.27057,2.06769 7.18393,2.6515 12.17662,2.44011 3.04151,-0.12878 4.59415,-0.38805 6.77848,-1.13192 z"
       id="path110"
       transform="scale(0.26458333)" />
    <path
       style="fill:#ffffff;fill-opacity:1;stroke:#000000;stroke-width:0.344207;stroke-linecap:square;stroke-linejoin:round;paint-order:fill markers stroke"
       d="m 361.49642,459.56071 c -8.9173,-0.97583 -18.40025,-4.49036 -26.5591,-9.84323 -5.42459,-3.55896 -13.01822,-11.05342 -16.64561,-16.42819 -8.35439,-12.37888 -12.21533,-26.8717 -11.09014,-41.629 0.90647,-11.88861 4.26726,-21.84267 10.61104,-31.42797 12.04323,-18.19704 32.92576,-28.7984 53.52566,-27.17319 11.23608,0.88646 21.10489,4.33954 29.8993,10.46172 4.21565,2.9347 11.34376,9.89117 14.26568,13.92217 5.81514,8.02239 9.85445,17.30208 11.54914,26.53241 1.32622,7.22342 1.12649,21.27978 -0.38917,27.38884 -2.28771,9.22093 -7.04752,18.86086 -12.92271,26.17207 -7.97264,9.92132 -21.2789,18.22378 -33.36185,20.81618 -6.4898,1.39239 -13.24762,1.82479 -18.88224,1.20819 z m 10.85768,-37.19314 c 5.44014,-0.60908 10.19159,-2.85359 14.40261,-6.80355 5.47019,-5.13107 8.26701,-11.41868 8.64453,-19.43406 0.39659,-8.41999 -2.73046,-16.10089 -8.83946,-21.71217 -4.48579,-4.12032 -9.02721,-6.14951 -15.2065,-6.79453 -10.93886,-1.14185 -21.24627,4.82054 -26.1035,15.09975 -2.14718,4.544 -2.8006,7.63737 -2.71965,12.87515 0.0763,4.93391 1.07965,8.92937 3.2755,13.04272 4.43628,8.31022 13.00381,13.69375 22.37404,14.05903 0.49121,0.0192 2.3688,-0.1304 4.17243,-0.33234 z"
       id="path112"
       transform="scale(0.26458333)" />
    <circle
       style="font-variation-settings:normal;opacity:1;vector-effect:none;fill:#280b0b;fill-opacity:1;fill-rule:evenodd;stroke-width:0.264583;stroke-linecap:butt;stroke-linejoin:miter;stroke-miterlimit:4;stroke-dasharray:none;stroke-dashoffset:0;stroke-opacity:1;stop-color:#000000;stop-opacity:1"
       id="path114"
       sodipodi:type="arc"
       sodipodi:cx="97.587593"
       sodipodi:cy="104.5851"
       sodipodi:rx="6.7069707"
       sodipodi:ry="6.901731"
       sodipodi:start="0"
       sodipodi:end="6.2751917"
       sodipodi:open="true"
       sodipodi:arc-type="arc"
       d="m 104.29456,104.5851 a 6.7069707,6.901731 0 0 1 -6.693564,6.90172 6.7069707,6.901731 0 0 1 -6.72032,-6.87414 6.7069707,6.901731 0 0 1 6.666708,-6.929189 6.7069707,6.901731 0 0 1 6.746966,6.846439" />
  </g>
</svg>
