<?xml version="1.0" encoding="UTF-8" standalone="no"?>
<svg
   xmlns:dc="http://purl.org/dc/elements/1.1/"
   xmlns:cc="http://creativecommons.org/ns#"
   xmlns:rdf="http://www.w3.org/1999/02/22-rdf-syntax-ns#"
   xmlns:svg="http://www.w3.org/2000/svg"
   xmlns="http://www.w3.org/2000/svg"
   xmlns:sodipodi="http://sodipodi.sourceforge.net/DTD/sodipodi-0.dtd"
   xmlns:inkscape="http://www.inkscape.org/namespaces/inkscape"
   width="210mm"
   height="297mm"
   viewBox="0 0 210 297"
   version="1.1"
   id="svg8"
   inkscape:version="1.0.2-2 (e86c870879, 2021-01-15)"
   sodipodi:docname="desenho2.svg">
  <defs
     id="defs2">
    <filter
       inkscape:collect="always"
       style="color-interpolation-filters:sRGB"
       id="filter26"
       x="-0.0011470587"
       width="1.0022941"
       y="-0.0012580646"
       height="1.0025161">
      <feGaussianBlur
         inkscape:collect="always"
         stdDeviation="0.016890812"
         id="feGaussianBlur28" />
    </filter>
  </defs>
  <sodipodi:namedview
     id="base"
     pagecolor="#ffffff"
     bordercolor="#666666"
     borderopacity="1.0"
     inkscape:pageopacity="0.0"
     inkscape:pageshadow="2"
     inkscape:zoom="0.49497475"
     inkscape:cx="418.05381"
     inkscape:cy="584.38562"
     inkscape:document-units="mm"
     inkscape:current-layer="layer1"
     inkscape:document-rotation="0"
     showgrid="false"
     inkscape:window-width="1758"
     inkscape:window-height="1030"
     inkscape:window-x="128"
     inkscape:window-y="0"
     inkscape:window-maximized="0" />
  <metadata
     id="metadata5">
    <rdf:RDF>
      <cc:Work
         rdf:about="">
        <dc:format>image/svg+xml</dc:format>
        <dc:type
           rdf:resource="http://purl.org/dc/dcmitype/StillImage" />
        <dc:title></dc:title>
      </cc:Work>
    </rdf:RDF>
  </metadata>
  <g
     inkscape:label="Layer 1"
     inkscape:groupmode="layer"
     id="layer1"
     style="display:inline">
    <path
       style="fill:#81d7e2;fill-opacity:1;stroke:#000000;stroke-width:0.264583px;stroke-linecap:butt;stroke-linejoin:miter;stroke-opacity:1;filter:url(#filter26)"
       d="m 105.42613,106.38882 5.33892,0.99219 3.49628,1.6064 3.30729,2.50409 2.45684,2.55134 1.93713,4.39398 0.8032,3.44903 -0.0945,4.20498 -0.75596,3.68527 -1.79538,3.2128 -2.5041,2.50409 -3.9215,1.84263 -4.7247,1.13393 -4.63021,0.14174 -3.30729,-0.33072 -3.827011,-0.94495 -3.54353,-1.55915 -2.55134,-2.03162 -1.84263,-2.50409 -1.41741,-3.63802 -0.42522,-3.30729 0.47247,-3.59078 1.08668,-3.63802 2.03162,-3.68526 3.02381,-3.02382 3.59077,-2.55133 3.449041,-0.99219 z"
       id="path24"
       transform="matrix(2.8573115,0,0,2.8573115,-195.85127,-202.4979)" />
    <path
       style="fill:#a08c96;fill-opacity:1;stroke:#000000;stroke-width:0.755996px;stroke-linecap:butt;stroke-linejoin:miter;stroke-opacity:1"
       d="m 147.09886,123.35802 3.32351,-3.8822 -0.27002,-5.06247 -1.95749,-3.77999 -3.1725,-2.43 -1.28247,-0.67499 0.54,-2.15998 4.18496,0.33747 3.5775,1.21502 4.52249,3.57747 3.37497,4.04998 2.15999,6.27748 -0.87748,5.80498 -2.49749,3.1725 -2.835,2.36248 -3.98249,1.01249 -4.80848,-9.82024"
       id="path853"
       inkscape:label="chifre2" />
    <path
       style="fill:#a08c96;fill-opacity:1;stroke:#000000;stroke-width:0.75667px;stroke-linecap:butt;stroke-linejoin:miter;stroke-opacity:1"
       d="m 60.640517,124.978 -3.329459,-3.8822 0.270501,-5.06247 1.96099,-3.77999 3.178184,-2.43 1.28477,-0.67499 -0.54097,-2.15998 -4.192454,0.33748 -3.583897,1.21501 -4.530588,3.57747 -3.381011,4.04998 -2.16385,6.27749 0.879052,5.80497 2.501959,3.1725 2.840068,2.36248 5.002118,1.61998 3.804587,-10.42773"
       id="path859"
       inkscape:label="chifre1"
       sodipodi:nodetypes="ccccccccccccccccc" />
    <path
       style="fill:#2aa1b4;fill-opacity:1;stroke:#000000;stroke-width:0.755996px;stroke-linecap:butt;stroke-linejoin:miter;stroke-opacity:1"
       d="m 108.66307,116.43075 4.00927,0.19087 9.16405,3.24562 11.26418,7.25489 -0.9546,5.91846 -1.43188,2.19556 -2.48192,-0.38185 -3.15016,-2.1001 -3.43651,-1.52734 -3.53198,-1.52735 -5.72757,-1.52735 h -5.823 l -0.47729,-4.96386 0.19087,-3.9138 z"
       id="path861" />
    <path
       style="fill:#2ca2b6;fill-opacity:1;stroke:#000000;stroke-width:0.755996px;stroke-linecap:butt;stroke-linejoin:miter;stroke-opacity:1"
       d="m 101.40816,125.97663 0.0954,-7.15942 -1.14549,-3.72291 -3.818367,-0.76367 -7.63672,2.38648 -6.01392,3.34106 -4.58204,2.8638 -2.29103,3.43651 0.28639,3.34106 0.76368,4.48658 3.05469,-0.66821 2.57738,-2.48195 4.58204,-2.48192 5.82301,-1.24096 6.58668,-0.47731 z"
       id="path863" />
    <ellipse
       style="font-variation-settings:normal;opacity:1;vector-effect:none;fill:#080e0a;fill-opacity:1;fill-rule:evenodd;stroke-width:0.929923;stroke-linecap:butt;stroke-linejoin:miter;stroke-miterlimit:4;stroke-dasharray:none;stroke-dashoffset:0;stroke-opacity:1;stop-color:#000000;stop-opacity:1"
       id="path865"
       ry="4.5222411"
       rx="4.785162"
       cy="139.53183"
       cx="94.558983" />
    <ellipse
       style="font-variation-settings:normal;opacity:1;vector-effect:none;fill:#080e0a;fill-opacity:1;fill-rule:evenodd;stroke-width:0.929923;stroke-linecap:butt;stroke-linejoin:miter;stroke-miterlimit:4;stroke-dasharray:none;stroke-dashoffset:0;stroke-opacity:1;stop-color:#000000;stop-opacity:1"
       id="ellipse867"
       ry="4.5222411"
       rx="4.785162"
       cy="139.53183"
       cx="113.65076" />
    <path
       style="fill:#349eb3;fill-opacity:1;stroke:#000000;stroke-width:0.755996px;stroke-linecap:butt;stroke-linejoin:miter;stroke-opacity:1"
       d="m 96.969703,153.56318 3.172497,1.34999 8.30246,-0.0674 3.64499,-1.08001 0.47251,-2.36248 -4.04998,-4.725 -3.1725,-1.61998 -2.02498,-0.0674 -2.69916,1.74199 -1.823327,1.97049 -1.39532,2.2411 z"
       id="path869"
       sodipodi:nodetypes="cccccccccccc" />
    <path
       style="fill:#80d8e2;fill-opacity:1;stroke:#000000;stroke-width:0.755996px;stroke-linecap:butt;stroke-linejoin:miter;stroke-opacity:1"
       d="m 89.101123,192.57282 -1.16959,2.03526 -4.09121,1.45489 -4.08701,0.4338 -3.24265,-1.56878 -1.74165,-1.79591 -0.29513,-3.33434 0.91808,-2.21321 z"
       id="path871"
       sodipodi:nodetypes="ccccccccc" />
    <path
       style="fill:#80d8e2;fill-opacity:1;stroke:#000000;stroke-width:0.740489px;stroke-linecap:butt;stroke-linejoin:miter;stroke-opacity:1"
       d="m 121.4198,192.57282 1.12209,2.03526 3.92512,1.45489 3.92109,0.4338 3.11098,-1.56878 1.67093,-1.79591 0.28316,-3.33434 -0.8808,-2.21321 z"
       id="path873"
       sodipodi:nodetypes="ccccccccc" />
  </g>
</svg>
